ISO-10303-21;
HEADER;
/* Generated by software containing ST-Developer
 * from STEP Tools, Inc. (www.steptools.com) 
 */
/* OPTION: using custom schema-name function */

FILE_DESCRIPTION(
/* description */ (''),
/* implementation_level */ '2;1');

FILE_NAME(
/* name */ 'OKY3231-5.stp',
/* time_stamp */ '2025-10-08T18:09:08+03:00',
/* author */ (''),
/* organization */ (''),
/* preprocessor_version */ 'ST-DEVELOPER v20',
/* originating_system */ 'SIEMENS PLM Software NX2506.5001',
/* authorisation */ '');

FILE_SCHEMA (('AUTOMOTIVE_DESIGN { 1 0 10303 214 3 1 1 1 }'));
ENDSEC;

DATA;
#10=SHAPE_REPRESENTATION_RELATIONSHIP('None',
'relationship between OKY3231-5-None and OKY3231-5-None',#22,#11);
#11=ADVANCED_BREP_SHAPE_REPRESENTATION('OKY3231-5-None',(#32),#595);
#12=SHAPE_DEFINITION_REPRESENTATION(#13,#22);
#13=PRODUCT_DEFINITION_SHAPE('','',#14);
#14=PRODUCT_DEFINITION(' ','',#16,#15);
#15=PRODUCT_DEFINITION_CONTEXT('part definition',#21,'design');
#16=PRODUCT_DEFINITION_FORMATION_WITH_SPECIFIED_SOURCE(' ',' ',#18,
 .NOT_KNOWN.);
#17=PRODUCT_RELATED_PRODUCT_CATEGORY('part','',(#18));
#18=PRODUCT('OKY3231-5','OKY3231-5',' ',(#19));
#19=PRODUCT_CONTEXT(' ',#21,'mechanical');
#20=APPLICATION_PROTOCOL_DEFINITION('international standard',
'automotive_design',2010,#21);
#21=APPLICATION_CONTEXT(
'core data for automotive mechanical design processes');
#22=SHAPE_REPRESENTATION('OKY3231-5-None',(#366),#595);
#23=PRESENTATION_LAYER_ASSIGNMENT('1','Layer 1',(#32));
#24=STYLED_ITEM('',(#25),#32);
#25=PRESENTATION_STYLE_ASSIGNMENT((#26));
#26=SURFACE_STYLE_USAGE(.BOTH.,#27);
#27=SURFACE_SIDE_STYLE('',(#28));
#28=SURFACE_STYLE_FILL_AREA(#29);
#29=FILL_AREA_STYLE('',(#30));
#30=FILL_AREA_STYLE_COLOUR('',#31);
#31=COLOUR_RGB('medium steel',0.611764705882353,0.658823529411765,0.670588235294118);
#32=MANIFOLD_SOLID_BREP('',#33);
#33=CLOSED_SHELL('',(#120,#121,#122,#123,#124,#125,#126,#127,#128,#129,
#130,#131,#132,#133,#134,#135,#136,#137));
#34=CYLINDRICAL_SURFACE('',#372,1.59);
#35=CYLINDRICAL_SURFACE('',#376,1.59);
#36=CYLINDRICAL_SURFACE('',#399,0.51);
#37=CYLINDRICAL_SURFACE('',#400,0.51);
#38=CYLINDRICAL_SURFACE('',#401,0.51);
#39=CYLINDRICAL_SURFACE('',#402,0.51);
#40=CYLINDRICAL_SURFACE('',#403,0.51);
#41=CYLINDRICAL_SURFACE('',#404,0.51);
#42=CYLINDRICAL_SURFACE('',#405,0.51);
#43=CYLINDRICAL_SURFACE('',#406,0.51);
#44=CYLINDRICAL_SURFACE('',#407,0.51);
#45=CYLINDRICAL_SURFACE('',#408,0.51);
#46=FACE_BOUND('',#151,.T.);
#47=FACE_BOUND('',#152,.T.);
#48=FACE_BOUND('',#154,.T.);
#49=FACE_BOUND('',#155,.T.);
#50=FACE_BOUND('',#156,.T.);
#51=FACE_BOUND('',#157,.T.);
#52=FACE_BOUND('',#158,.T.);
#53=FACE_BOUND('',#159,.T.);
#54=FACE_BOUND('',#160,.T.);
#55=FACE_BOUND('',#161,.T.);
#56=FACE_BOUND('',#162,.T.);
#57=FACE_BOUND('',#163,.T.);
#58=FACE_BOUND('',#164,.T.);
#59=FACE_BOUND('',#165,.T.);
#60=FACE_BOUND('',#166,.T.);
#61=FACE_BOUND('',#167,.T.);
#62=FACE_BOUND('',#168,.T.);
#63=FACE_BOUND('',#169,.T.);
#64=FACE_BOUND('',#170,.T.);
#65=FACE_BOUND('',#171,.T.);
#66=FACE_BOUND('',#172,.T.);
#67=FACE_BOUND('',#173,.T.);
#68=FACE_BOUND('',#174,.T.);
#69=FACE_BOUND('',#175,.T.);
#70=FACE_BOUND('',#176,.T.);
#71=FACE_BOUND('',#177,.T.);
#72=FACE_BOUND('',#178,.T.);
#73=FACE_BOUND('',#179,.T.);
#74=FACE_BOUND('',#180,.T.);
#75=FACE_BOUND('',#181,.T.);
#76=FACE_BOUND('',#182,.T.);
#77=FACE_BOUND('',#183,.T.);
#78=FACE_BOUND('',#184,.T.);
#79=FACE_BOUND('',#185,.T.);
#80=FACE_BOUND('',#186,.T.);
#81=FACE_BOUND('',#187,.T.);
#82=FACE_BOUND('',#188,.T.);
#83=FACE_BOUND('',#189,.T.);
#84=FACE_BOUND('',#190,.T.);
#85=FACE_BOUND('',#191,.T.);
#86=FACE_BOUND('',#192,.T.);
#87=FACE_BOUND('',#193,.T.);
#88=FACE_BOUND('',#194,.T.);
#89=FACE_BOUND('',#195,.T.);
#90=FACE_BOUND('',#196,.T.);
#91=FACE_BOUND('',#197,.T.);
#92=FACE_BOUND('',#198,.T.);
#93=FACE_BOUND('',#199,.T.);
#94=FACE_BOUND('',#200,.T.);
#95=FACE_BOUND('',#201,.T.);
#96=CIRCLE('',#370,1.59);
#97=CIRCLE('',#371,1.59);
#98=CIRCLE('',#374,1.59);
#99=CIRCLE('',#375,1.59);
#100=CIRCLE('',#377,0.51);
#101=CIRCLE('',#378,0.51);
#102=CIRCLE('',#379,0.51);
#103=CIRCLE('',#380,0.51);
#104=CIRCLE('',#381,0.51);
#105=CIRCLE('',#382,0.51);
#106=CIRCLE('',#383,0.51);
#107=CIRCLE('',#384,0.51);
#108=CIRCLE('',#385,0.51);
#109=CIRCLE('',#386,0.51);
#110=CIRCLE('',#388,0.51);
#111=CIRCLE('',#389,0.51);
#112=CIRCLE('',#390,0.51);
#113=CIRCLE('',#391,0.51);
#114=CIRCLE('',#392,0.51);
#115=CIRCLE('',#393,0.51);
#116=CIRCLE('',#394,0.51);
#117=CIRCLE('',#395,0.51);
#118=CIRCLE('',#396,0.51);
#119=CIRCLE('',#397,0.51);
#120=ADVANCED_FACE('',(#144),#138,.F.);
#121=ADVANCED_FACE('',(#145),#139,.F.);
#122=ADVANCED_FACE('',(#146),#140,.F.);
#123=ADVANCED_FACE('',(#46,#47),#34,.F.);
#124=ADVANCED_FACE('',(#147),#141,.F.);
#125=ADVANCED_FACE('',(#48,#49),#35,.F.);
#126=ADVANCED_FACE('',(#50,#51,#52,#53,#54,#55,#56,#57,#58,#59,#60,#61,
#62),#142,.T.);
#127=ADVANCED_FACE('',(#63,#64,#65,#66,#67,#68,#69,#70,#71,#72,#73,#74,
#75),#143,.F.);
#128=ADVANCED_FACE('',(#76,#77),#36,.F.);
#129=ADVANCED_FACE('',(#78,#79),#37,.F.);
#130=ADVANCED_FACE('',(#80,#81),#38,.F.);
#131=ADVANCED_FACE('',(#82,#83),#39,.F.);
#132=ADVANCED_FACE('',(#84,#85),#40,.F.);
#133=ADVANCED_FACE('',(#86,#87),#41,.F.);
#134=ADVANCED_FACE('',(#88,#89),#42,.F.);
#135=ADVANCED_FACE('',(#90,#91),#43,.F.);
#136=ADVANCED_FACE('',(#92,#93),#44,.F.);
#137=ADVANCED_FACE('',(#94,#95),#45,.F.);
#138=PLANE('',#367);
#139=PLANE('',#368);
#140=PLANE('',#369);
#141=PLANE('',#373);
#142=PLANE('',#387);
#143=PLANE('',#398);
#144=FACE_OUTER_BOUND('',#148,.T.);
#145=FACE_OUTER_BOUND('',#149,.T.);
#146=FACE_OUTER_BOUND('',#150,.T.);
#147=FACE_OUTER_BOUND('',#153,.T.);
#148=EDGE_LOOP('',(#202,#203,#204,#205));
#149=EDGE_LOOP('',(#206,#207,#208,#209));
#150=EDGE_LOOP('',(#210,#211,#212,#213));
#151=EDGE_LOOP('',(#214));
#152=EDGE_LOOP('',(#215));
#153=EDGE_LOOP('',(#216,#217,#218,#219));
#154=EDGE_LOOP('',(#220));
#155=EDGE_LOOP('',(#221));
#156=EDGE_LOOP('',(#222));
#157=EDGE_LOOP('',(#223));
#158=EDGE_LOOP('',(#224));
#159=EDGE_LOOP('',(#225));
#160=EDGE_LOOP('',(#226));
#161=EDGE_LOOP('',(#227));
#162=EDGE_LOOP('',(#228));
#163=EDGE_LOOP('',(#229));
#164=EDGE_LOOP('',(#230));
#165=EDGE_LOOP('',(#231));
#166=EDGE_LOOP('',(#232,#233,#234,#235));
#167=EDGE_LOOP('',(#236));
#168=EDGE_LOOP('',(#237));
#169=EDGE_LOOP('',(#238));
#170=EDGE_LOOP('',(#239));
#171=EDGE_LOOP('',(#240));
#172=EDGE_LOOP('',(#241));
#173=EDGE_LOOP('',(#242));
#174=EDGE_LOOP('',(#243));
#175=EDGE_LOOP('',(#244));
#176=EDGE_LOOP('',(#245));
#177=EDGE_LOOP('',(#246));
#178=EDGE_LOOP('',(#247));
#179=EDGE_LOOP('',(#248,#249,#250,#251));
#180=EDGE_LOOP('',(#252));
#181=EDGE_LOOP('',(#253));
#182=EDGE_LOOP('',(#254));
#183=EDGE_LOOP('',(#255));
#184=EDGE_LOOP('',(#256));
#185=EDGE_LOOP('',(#257));
#186=EDGE_LOOP('',(#258));
#187=EDGE_LOOP('',(#259));
#188=EDGE_LOOP('',(#260));
#189=EDGE_LOOP('',(#261));
#190=EDGE_LOOP('',(#262));
#191=EDGE_LOOP('',(#263));
#192=EDGE_LOOP('',(#264));
#193=EDGE_LOOP('',(#265));
#194=EDGE_LOOP('',(#266));
#195=EDGE_LOOP('',(#267));
#196=EDGE_LOOP('',(#268));
#197=EDGE_LOOP('',(#269));
#198=EDGE_LOOP('',(#270));
#199=EDGE_LOOP('',(#271));
#200=EDGE_LOOP('',(#272));
#201=EDGE_LOOP('',(#273));
#202=ORIENTED_EDGE('',*,*,#306,.T.);
#203=ORIENTED_EDGE('',*,*,#307,.F.);
#204=ORIENTED_EDGE('',*,*,#308,.F.);
#205=ORIENTED_EDGE('',*,*,#309,.T.);
#206=ORIENTED_EDGE('',*,*,#310,.T.);
#207=ORIENTED_EDGE('',*,*,#311,.F.);
#208=ORIENTED_EDGE('',*,*,#312,.F.);
#209=ORIENTED_EDGE('',*,*,#307,.T.);
#210=ORIENTED_EDGE('',*,*,#313,.T.);
#211=ORIENTED_EDGE('',*,*,#314,.F.);
#212=ORIENTED_EDGE('',*,*,#315,.F.);
#213=ORIENTED_EDGE('',*,*,#311,.T.);
#214=ORIENTED_EDGE('',*,*,#316,.T.);
#215=ORIENTED_EDGE('',*,*,#317,.F.);
#216=ORIENTED_EDGE('',*,*,#318,.T.);
#217=ORIENTED_EDGE('',*,*,#309,.F.);
#218=ORIENTED_EDGE('',*,*,#319,.F.);
#219=ORIENTED_EDGE('',*,*,#314,.T.);
#220=ORIENTED_EDGE('',*,*,#320,.T.);
#221=ORIENTED_EDGE('',*,*,#321,.F.);
#222=ORIENTED_EDGE('',*,*,#322,.F.);
#223=ORIENTED_EDGE('',*,*,#323,.F.);
#224=ORIENTED_EDGE('',*,*,#324,.F.);
#225=ORIENTED_EDGE('',*,*,#325,.F.);
#226=ORIENTED_EDGE('',*,*,#326,.F.);
#227=ORIENTED_EDGE('',*,*,#327,.F.);
#228=ORIENTED_EDGE('',*,*,#328,.F.);
#229=ORIENTED_EDGE('',*,*,#329,.F.);
#230=ORIENTED_EDGE('',*,*,#330,.F.);
#231=ORIENTED_EDGE('',*,*,#331,.F.);
#232=ORIENTED_EDGE('',*,*,#308,.T.);
#233=ORIENTED_EDGE('',*,*,#312,.T.);
#234=ORIENTED_EDGE('',*,*,#315,.T.);
#235=ORIENTED_EDGE('',*,*,#319,.T.);
#236=ORIENTED_EDGE('',*,*,#316,.F.);
#237=ORIENTED_EDGE('',*,*,#320,.F.);
#238=ORIENTED_EDGE('',*,*,#332,.T.);
#239=ORIENTED_EDGE('',*,*,#333,.T.);
#240=ORIENTED_EDGE('',*,*,#334,.T.);
#241=ORIENTED_EDGE('',*,*,#335,.T.);
#242=ORIENTED_EDGE('',*,*,#336,.T.);
#243=ORIENTED_EDGE('',*,*,#337,.T.);
#244=ORIENTED_EDGE('',*,*,#338,.T.);
#245=ORIENTED_EDGE('',*,*,#339,.T.);
#246=ORIENTED_EDGE('',*,*,#340,.T.);
#247=ORIENTED_EDGE('',*,*,#341,.T.);
#248=ORIENTED_EDGE('',*,*,#306,.F.);
#249=ORIENTED_EDGE('',*,*,#318,.F.);
#250=ORIENTED_EDGE('',*,*,#313,.F.);
#251=ORIENTED_EDGE('',*,*,#310,.F.);
#252=ORIENTED_EDGE('',*,*,#317,.T.);
#253=ORIENTED_EDGE('',*,*,#321,.T.);
#254=ORIENTED_EDGE('',*,*,#341,.F.);
#255=ORIENTED_EDGE('',*,*,#331,.T.);
#256=ORIENTED_EDGE('',*,*,#340,.F.);
#257=ORIENTED_EDGE('',*,*,#330,.T.);
#258=ORIENTED_EDGE('',*,*,#339,.F.);
#259=ORIENTED_EDGE('',*,*,#329,.T.);
#260=ORIENTED_EDGE('',*,*,#338,.F.);
#261=ORIENTED_EDGE('',*,*,#328,.T.);
#262=ORIENTED_EDGE('',*,*,#337,.F.);
#263=ORIENTED_EDGE('',*,*,#327,.T.);
#264=ORIENTED_EDGE('',*,*,#336,.F.);
#265=ORIENTED_EDGE('',*,*,#326,.T.);
#266=ORIENTED_EDGE('',*,*,#335,.F.);
#267=ORIENTED_EDGE('',*,*,#325,.T.);
#268=ORIENTED_EDGE('',*,*,#334,.F.);
#269=ORIENTED_EDGE('',*,*,#324,.T.);
#270=ORIENTED_EDGE('',*,*,#333,.F.);
#271=ORIENTED_EDGE('',*,*,#323,.T.);
#272=ORIENTED_EDGE('',*,*,#332,.F.);
#273=ORIENTED_EDGE('',*,*,#322,.T.);
#274=VERTEX_POINT('',#509);
#275=VERTEX_POINT('',#510);
#276=VERTEX_POINT('',#512);
#277=VERTEX_POINT('',#514);
#278=VERTEX_POINT('',#518);
#279=VERTEX_POINT('',#520);
#280=VERTEX_POINT('',#524);
#281=VERTEX_POINT('',#526);
#282=VERTEX_POINT('',#530);
#283=VERTEX_POINT('',#532);
#284=VERTEX_POINT('',#538);
#285=VERTEX_POINT('',#540);
#286=VERTEX_POINT('',#543);
#287=VERTEX_POINT('',#545);
#288=VERTEX_POINT('',#547);
#289=VERTEX_POINT('',#549);
#290=VERTEX_POINT('',#551);
#291=VERTEX_POINT('',#553);
#292=VERTEX_POINT('',#555);
#293=VERTEX_POINT('',#557);
#294=VERTEX_POINT('',#559);
#295=VERTEX_POINT('',#561);
#296=VERTEX_POINT('',#564);
#297=VERTEX_POINT('',#566);
#298=VERTEX_POINT('',#568);
#299=VERTEX_POINT('',#570);
#300=VERTEX_POINT('',#572);
#301=VERTEX_POINT('',#574);
#302=VERTEX_POINT('',#576);
#303=VERTEX_POINT('',#578);
#304=VERTEX_POINT('',#580);
#305=VERTEX_POINT('',#582);
#306=EDGE_CURVE('',#274,#275,#342,.T.);
#307=EDGE_CURVE('',#276,#275,#343,.T.);
#308=EDGE_CURVE('',#277,#276,#344,.T.);
#309=EDGE_CURVE('',#277,#274,#345,.T.);
#310=EDGE_CURVE('',#275,#278,#346,.T.);
#311=EDGE_CURVE('',#279,#278,#347,.T.);
#312=EDGE_CURVE('',#276,#279,#348,.T.);
#313=EDGE_CURVE('',#278,#280,#349,.T.);
#314=EDGE_CURVE('',#281,#280,#350,.T.);
#315=EDGE_CURVE('',#279,#281,#351,.T.);
#316=EDGE_CURVE('',#282,#282,#96,.T.);
#317=EDGE_CURVE('',#283,#283,#97,.T.);
#318=EDGE_CURVE('',#280,#274,#352,.T.);
#319=EDGE_CURVE('',#281,#277,#353,.T.);
#320=EDGE_CURVE('',#284,#284,#98,.T.);
#321=EDGE_CURVE('',#285,#285,#99,.T.);
#322=EDGE_CURVE('',#286,#286,#100,.T.);
#323=EDGE_CURVE('',#287,#287,#101,.T.);
#324=EDGE_CURVE('',#288,#288,#102,.T.);
#325=EDGE_CURVE('',#289,#289,#103,.T.);
#326=EDGE_CURVE('',#290,#290,#104,.T.);
#327=EDGE_CURVE('',#291,#291,#105,.T.);
#328=EDGE_CURVE('',#292,#292,#106,.T.);
#329=EDGE_CURVE('',#293,#293,#107,.T.);
#330=EDGE_CURVE('',#294,#294,#108,.T.);
#331=EDGE_CURVE('',#295,#295,#109,.T.);
#332=EDGE_CURVE('',#296,#296,#110,.T.);
#333=EDGE_CURVE('',#297,#297,#111,.T.);
#334=EDGE_CURVE('',#298,#298,#112,.T.);
#335=EDGE_CURVE('',#299,#299,#113,.T.);
#336=EDGE_CURVE('',#300,#300,#114,.T.);
#337=EDGE_CURVE('',#301,#301,#115,.T.);
#338=EDGE_CURVE('',#302,#302,#116,.T.);
#339=EDGE_CURVE('',#303,#303,#117,.T.);
#340=EDGE_CURVE('',#304,#304,#118,.T.);
#341=EDGE_CURVE('',#305,#305,#119,.T.);
#342=LINE('',#508,#354);
#343=LINE('',#511,#355);
#344=LINE('',#513,#356);
#345=LINE('',#515,#357);
#346=LINE('',#517,#358);
#347=LINE('',#519,#359);
#348=LINE('',#521,#360);
#349=LINE('',#523,#361);
#350=LINE('',#525,#362);
#351=LINE('',#527,#363);
#352=LINE('',#534,#364);
#353=LINE('',#535,#365);
#354=VECTOR('',#411,1.);
#355=VECTOR('',#412,1.);
#356=VECTOR('',#413,1.);
#357=VECTOR('',#414,1.);
#358=VECTOR('',#417,1.);
#359=VECTOR('',#418,1.);
#360=VECTOR('',#419,1.);
#361=VECTOR('',#422,1.);
#362=VECTOR('',#423,1.);
#363=VECTOR('',#424,1.);
#364=VECTOR('',#433,1.);
#365=VECTOR('',#434,1.);
#366=AXIS2_PLACEMENT_3D('',#507,#409,#410);
#367=AXIS2_PLACEMENT_3D('',#516,#415,#416);
#368=AXIS2_PLACEMENT_3D('',#522,#420,#421);
#369=AXIS2_PLACEMENT_3D('',#528,#425,#426);
#370=AXIS2_PLACEMENT_3D('',#529,#427,#428);
#371=AXIS2_PLACEMENT_3D('',#531,#429,#430);
#372=AXIS2_PLACEMENT_3D('',#533,#431,#432);
#373=AXIS2_PLACEMENT_3D('',#536,#435,#436);
#374=AXIS2_PLACEMENT_3D('',#537,#437,#438);
#375=AXIS2_PLACEMENT_3D('',#539,#439,#440);
#376=AXIS2_PLACEMENT_3D('',#541,#441,#442);
#377=AXIS2_PLACEMENT_3D('',#542,#443,#444);
#378=AXIS2_PLACEMENT_3D('',#544,#445,#446);
#379=AXIS2_PLACEMENT_3D('',#546,#447,#448);
#380=AXIS2_PLACEMENT_3D('',#548,#449,#450);
#381=AXIS2_PLACEMENT_3D('',#550,#451,#452);
#382=AXIS2_PLACEMENT_3D('',#552,#453,#454);
#383=AXIS2_PLACEMENT_3D('',#554,#455,#456);
#384=AXIS2_PLACEMENT_3D('',#556,#457,#458);
#385=AXIS2_PLACEMENT_3D('',#558,#459,#460);
#386=AXIS2_PLACEMENT_3D('',#560,#461,#462);
#387=AXIS2_PLACEMENT_3D('',#562,#463,#464);
#388=AXIS2_PLACEMENT_3D('',#563,#465,#466);
#389=AXIS2_PLACEMENT_3D('',#565,#467,#468);
#390=AXIS2_PLACEMENT_3D('',#567,#469,#470);
#391=AXIS2_PLACEMENT_3D('',#569,#471,#472);
#392=AXIS2_PLACEMENT_3D('',#571,#473,#474);
#393=AXIS2_PLACEMENT_3D('',#573,#475,#476);
#394=AXIS2_PLACEMENT_3D('',#575,#477,#478);
#395=AXIS2_PLACEMENT_3D('',#577,#479,#480);
#396=AXIS2_PLACEMENT_3D('',#579,#481,#482);
#397=AXIS2_PLACEMENT_3D('',#581,#483,#484);
#398=AXIS2_PLACEMENT_3D('',#583,#485,#486);
#399=AXIS2_PLACEMENT_3D('',#584,#487,#488);
#400=AXIS2_PLACEMENT_3D('',#585,#489,#490);
#401=AXIS2_PLACEMENT_3D('',#586,#491,#492);
#402=AXIS2_PLACEMENT_3D('',#587,#493,#494);
#403=AXIS2_PLACEMENT_3D('',#588,#495,#496);
#404=AXIS2_PLACEMENT_3D('',#589,#497,#498);
#405=AXIS2_PLACEMENT_3D('',#590,#499,#500);
#406=AXIS2_PLACEMENT_3D('',#591,#501,#502);
#407=AXIS2_PLACEMENT_3D('',#592,#503,#504);
#408=AXIS2_PLACEMENT_3D('',#593,#505,#506);
#409=DIRECTION('',(0.,0.,1.));
#410=DIRECTION('',(1.,0.,0.));
#411=DIRECTION('',(0.,-1.,0.));
#412=DIRECTION('',(0.,0.,-1.));
#413=DIRECTION('',(0.,-1.,0.));
#414=DIRECTION('',(0.,0.,-1.));
#415=DIRECTION('',(1.,0.,0.));
#416=DIRECTION('',(0.,0.,-1.));
#417=DIRECTION('',(1.,0.,0.));
#418=DIRECTION('',(0.,0.,-1.));
#419=DIRECTION('',(1.,0.,0.));
#420=DIRECTION('',(0.,1.,0.));
#421=DIRECTION('',(0.,0.,1.));
#422=DIRECTION('',(0.,1.,0.));
#423=DIRECTION('',(0.,0.,-1.));
#424=DIRECTION('',(0.,1.,0.));
#425=DIRECTION('',(-1.,0.,0.));
#426=DIRECTION('',(0.,0.,1.));
#427=DIRECTION('',(0.,0.,1.));
#428=DIRECTION('',(1.,0.,0.));
#429=DIRECTION('',(0.,0.,1.));
#430=DIRECTION('',(1.,0.,0.));
#431=DIRECTION('',(0.,0.,-1.));
#432=DIRECTION('',(-1.,0.,0.));
#433=DIRECTION('',(-1.,0.,0.));
#434=DIRECTION('',(-1.,0.,0.));
#435=DIRECTION('',(0.,-1.,0.));
#436=DIRECTION('',(0.,0.,-1.));
#437=DIRECTION('',(0.,0.,1.));
#438=DIRECTION('',(1.,0.,0.));
#439=DIRECTION('',(0.,0.,1.));
#440=DIRECTION('',(1.,0.,0.));
#441=DIRECTION('',(0.,0.,-1.));
#442=DIRECTION('',(-1.,0.,0.));
#443=DIRECTION('',(0.,0.,1.));
#444=DIRECTION('',(0.,-1.,0.));
#445=DIRECTION('',(0.,0.,1.));
#446=DIRECTION('',(0.,-1.,0.));
#447=DIRECTION('',(0.,0.,1.));
#448=DIRECTION('',(0.,-1.,0.));
#449=DIRECTION('',(0.,0.,1.));
#450=DIRECTION('',(0.,-1.,0.));
#451=DIRECTION('',(0.,0.,1.));
#452=DIRECTION('',(0.,-1.,0.));
#453=DIRECTION('',(0.,0.,1.));
#454=DIRECTION('',(0.,-1.,0.));
#455=DIRECTION('',(0.,0.,1.));
#456=DIRECTION('',(0.,-1.,0.));
#457=DIRECTION('',(0.,0.,1.));
#458=DIRECTION('',(0.,-1.,0.));
#459=DIRECTION('',(0.,0.,1.));
#460=DIRECTION('',(0.,-1.,0.));
#461=DIRECTION('',(0.,0.,1.));
#462=DIRECTION('',(0.,-1.,0.));
#463=DIRECTION('',(0.,0.,1.));
#464=DIRECTION('',(1.,0.,0.));
#465=DIRECTION('',(0.,0.,1.));
#466=DIRECTION('',(0.,-1.,0.));
#467=DIRECTION('',(0.,0.,1.));
#468=DIRECTION('',(0.,-1.,0.));
#469=DIRECTION('',(0.,0.,1.));
#470=DIRECTION('',(0.,-1.,0.));
#471=DIRECTION('',(0.,0.,1.));
#472=DIRECTION('',(0.,-1.,0.));
#473=DIRECTION('',(0.,0.,1.));
#474=DIRECTION('',(0.,-1.,0.));
#475=DIRECTION('',(0.,0.,1.));
#476=DIRECTION('',(0.,-1.,0.));
#477=DIRECTION('',(0.,0.,1.));
#478=DIRECTION('',(0.,-1.,0.));
#479=DIRECTION('',(0.,0.,1.));
#480=DIRECTION('',(0.,-1.,0.));
#481=DIRECTION('',(0.,0.,1.));
#482=DIRECTION('',(0.,-1.,0.));
#483=DIRECTION('',(0.,0.,1.));
#484=DIRECTION('',(0.,-1.,0.));
#485=DIRECTION('',(0.,0.,1.));
#486=DIRECTION('',(1.,0.,0.));
#487=DIRECTION('',(0.,0.,1.));
#488=DIRECTION('',(1.,0.,0.));
#489=DIRECTION('',(0.,0.,1.));
#490=DIRECTION('',(1.,0.,0.));
#491=DIRECTION('',(0.,0.,1.));
#492=DIRECTION('',(1.,0.,0.));
#493=DIRECTION('',(0.,0.,1.));
#494=DIRECTION('',(1.,0.,0.));
#495=DIRECTION('',(0.,0.,1.));
#496=DIRECTION('',(1.,0.,0.));
#497=DIRECTION('',(0.,0.,1.));
#498=DIRECTION('',(1.,0.,0.));
#499=DIRECTION('',(0.,0.,1.));
#500=DIRECTION('',(1.,0.,0.));
#501=DIRECTION('',(0.,0.,1.));
#502=DIRECTION('',(1.,0.,0.));
#503=DIRECTION('',(0.,0.,1.));
#504=DIRECTION('',(1.,0.,0.));
#505=DIRECTION('',(0.,0.,1.));
#506=DIRECTION('',(1.,0.,0.));
#507=CARTESIAN_POINT('',(0.,0.,0.));
#508=CARTESIAN_POINT('',(0.,26.1,0.));
#509=CARTESIAN_POINT('',(0.,26.1,0.));
#510=CARTESIAN_POINT('',(0.,0.,0.));
#511=CARTESIAN_POINT('',(0.,0.,1.2));
#512=CARTESIAN_POINT('',(0.,0.,1.2));
#513=CARTESIAN_POINT('',(0.,26.1,1.2));
#514=CARTESIAN_POINT('',(0.,26.1,1.2));
#515=CARTESIAN_POINT('',(0.,26.1,1.2));
#516=CARTESIAN_POINT('',(0.,26.1,1.2));
#517=CARTESIAN_POINT('',(0.,0.,0.));
#518=CARTESIAN_POINT('',(16.8,0.,0.));
#519=CARTESIAN_POINT('',(16.8,0.,1.2));
#520=CARTESIAN_POINT('',(16.8,0.,1.2));
#521=CARTESIAN_POINT('',(0.,0.,1.2));
#522=CARTESIAN_POINT('',(0.,0.,1.2));
#523=CARTESIAN_POINT('',(16.8,0.,0.));
#524=CARTESIAN_POINT('',(16.8,26.1,0.));
#525=CARTESIAN_POINT('',(16.8,26.1,1.2));
#526=CARTESIAN_POINT('',(16.8,26.1,1.2));
#527=CARTESIAN_POINT('',(16.8,0.,1.2));
#528=CARTESIAN_POINT('',(16.8,0.,1.2));
#529=CARTESIAN_POINT('',(14.21,2.99,1.2));
#530=CARTESIAN_POINT('',(15.8,2.99,1.2));
#531=CARTESIAN_POINT('',(14.21,2.99,0.));
#532=CARTESIAN_POINT('',(15.8,2.99,0.));
#533=CARTESIAN_POINT('',(14.21,2.99,1.2));
#534=CARTESIAN_POINT('',(16.8,26.1,0.));
#535=CARTESIAN_POINT('',(16.8,26.1,1.2));
#536=CARTESIAN_POINT('',(16.8,26.1,1.2));
#537=CARTESIAN_POINT('',(14.21,23.11,1.2));
#538=CARTESIAN_POINT('',(15.8,23.11,1.2));
#539=CARTESIAN_POINT('',(14.21,23.11,0.));
#540=CARTESIAN_POINT('',(15.8,23.11,0.));
#541=CARTESIAN_POINT('',(14.21,23.11,1.2));
#542=CARTESIAN_POINT('',(1.01,4.16,1.2));
#543=CARTESIAN_POINT('',(1.01,3.65,1.2));
#544=CARTESIAN_POINT('',(1.01,6.7,1.2));
#545=CARTESIAN_POINT('',(1.01,6.19,1.2));
#546=CARTESIAN_POINT('',(1.01,9.24,1.2));
#547=CARTESIAN_POINT('',(1.01,8.73,1.2));
#548=CARTESIAN_POINT('',(1.01,11.78,1.2));
#549=CARTESIAN_POINT('',(1.01,11.27,1.2));
#550=CARTESIAN_POINT('',(1.01,14.32,1.2));
#551=CARTESIAN_POINT('',(1.01,13.81,1.2));
#552=CARTESIAN_POINT('',(1.01,16.86,1.2));
#553=CARTESIAN_POINT('',(1.01,16.35,1.2));
#554=CARTESIAN_POINT('',(1.01,19.4,1.2));
#555=CARTESIAN_POINT('',(1.01,18.89,1.2));
#556=CARTESIAN_POINT('',(1.01,21.94,1.2));
#557=CARTESIAN_POINT('',(1.01,21.43,1.2));
#558=CARTESIAN_POINT('',(1.01,24.48,1.2));
#559=CARTESIAN_POINT('',(1.01,23.97,1.2));
#560=CARTESIAN_POINT('',(1.01,1.62,1.2));
#561=CARTESIAN_POINT('',(1.01,1.11,1.2));
#562=CARTESIAN_POINT('',(14.21,2.99,1.2));
#563=CARTESIAN_POINT('',(1.01,4.16,0.));
#564=CARTESIAN_POINT('',(1.01,3.65,0.));
#565=CARTESIAN_POINT('',(1.01,6.7,0.));
#566=CARTESIAN_POINT('',(1.01,6.19,0.));
#567=CARTESIAN_POINT('',(1.01,9.24,0.));
#568=CARTESIAN_POINT('',(1.01,8.73,0.));
#569=CARTESIAN_POINT('',(1.01,11.78,0.));
#570=CARTESIAN_POINT('',(1.01,11.27,0.));
#571=CARTESIAN_POINT('',(1.01,14.32,0.));
#572=CARTESIAN_POINT('',(1.01,13.81,0.));
#573=CARTESIAN_POINT('',(1.01,16.86,0.));
#574=CARTESIAN_POINT('',(1.01,16.35,0.));
#575=CARTESIAN_POINT('',(1.01,19.4,0.));
#576=CARTESIAN_POINT('',(1.01,18.89,0.));
#577=CARTESIAN_POINT('',(1.01,21.94,0.));
#578=CARTESIAN_POINT('',(1.01,21.43,0.));
#579=CARTESIAN_POINT('',(1.01,24.48,0.));
#580=CARTESIAN_POINT('',(1.01,23.97,0.));
#581=CARTESIAN_POINT('',(1.01,1.62,0.));
#582=CARTESIAN_POINT('',(1.01,1.11,0.));
#583=CARTESIAN_POINT('',(14.21,2.99,0.));
#584=CARTESIAN_POINT('',(1.01,1.62,0.));
#585=CARTESIAN_POINT('',(1.01,24.48,0.));
#586=CARTESIAN_POINT('',(1.01,21.94,0.));
#587=CARTESIAN_POINT('',(1.01,19.4,0.));
#588=CARTESIAN_POINT('',(1.01,16.86,0.));
#589=CARTESIAN_POINT('',(1.01,14.32,0.));
#590=CARTESIAN_POINT('',(1.01,11.78,0.));
#591=CARTESIAN_POINT('',(1.01,9.24,0.));
#592=CARTESIAN_POINT('',(1.01,6.7,0.));
#593=CARTESIAN_POINT('',(1.01,4.16,0.));
#594=MECHANICAL_DESIGN_GEOMETRIC_PRESENTATION_REPRESENTATION('',(#24),#595);
#595=(
GEOMETRIC_REPRESENTATION_CONTEXT(3)
GLOBAL_UNCERTAINTY_ASSIGNED_CONTEXT((#596))
GLOBAL_UNIT_ASSIGNED_CONTEXT((#602,#598,#597))
REPRESENTATION_CONTEXT('OKY3231-5','TOP_LEVEL_ASSEMBLY_PART')
);
#596=UNCERTAINTY_MEASURE_WITH_UNIT(LENGTH_MEASURE(2.E-5),#602,
'DISTANCE_ACCURACY_VALUE','Maximum Tolerance applied to model');
#597=(
NAMED_UNIT(*)
SI_UNIT($,.STERADIAN.)
SOLID_ANGLE_UNIT()
);
#598=(
CONVERSION_BASED_UNIT('DEGREE',#600)
NAMED_UNIT(#599)
PLANE_ANGLE_UNIT()
);
#599=DIMENSIONAL_EXPONENTS(0.,0.,0.,0.,0.,0.,0.);
#600=PLANE_ANGLE_MEASURE_WITH_UNIT(PLANE_ANGLE_MEASURE(0.0174532925),#601);
#601=(
NAMED_UNIT(*)
PLANE_ANGLE_UNIT()
SI_UNIT($,.RADIAN.)
);
#602=(
LENGTH_UNIT()
NAMED_UNIT(*)
SI_UNIT(.MILLI.,.METRE.)
);
ENDSEC;
END-ISO-10303-21;
